<svg width="36" height="36" viewBox="0 0 36 36" fill="none" xmlns="http://www.w3.org/2000/svg">
<rect width="36" height="36" fill="#E5E5E5"/>
<rect width="36" height="36" fill="#C89595"/>
<path d="M18.6452 18.142V22.398C18.2532 22.622 17.7865 22.7993 17.2452 22.93C16.7039 23.0513 16.1532 23.112 15.5932 23.112C14.7905 23.112 14.0672 22.986 13.4232 22.734C12.7885 22.482 12.2425 22.1367 11.7852 21.698C11.3279 21.25 10.9779 20.7227 10.7352 20.116C10.4925 19.5093 10.3712 18.8467 10.3712 18.128C10.3712 17.3347 10.5112 16.6113 10.7912 15.958C11.0805 15.2953 11.4679 14.726 11.9532 14.25C12.4479 13.774 13.0125 13.4053 13.6472 13.144C14.2912 12.8733 14.9725 12.738 15.6912 12.738C16.1765 12.738 16.6852 12.8033 17.2172 12.934C17.7492 13.0553 18.2112 13.2327 18.6032 13.466L17.8612 14.712C17.7212 14.628 17.5579 14.5533 17.3712 14.488C17.1939 14.4227 17.0072 14.3667 16.8112 14.32C16.6152 14.2733 16.4192 14.2407 16.2232 14.222C16.0272 14.194 15.8405 14.18 15.6632 14.18C15.1685 14.18 14.6925 14.278 14.2352 14.474C13.7779 14.67 13.3765 14.9407 13.0312 15.286C12.6859 15.6313 12.4105 16.0373 12.2052 16.504C11.9999 16.9707 11.8972 17.4747 11.8972 18.016C11.8972 18.5107 11.9859 18.9773 12.1632 19.416C12.3499 19.8547 12.6065 20.242 12.9332 20.578C13.2599 20.914 13.6519 21.18 14.1092 21.376C14.5665 21.572 15.0705 21.67 15.6212 21.67C15.8359 21.67 16.0879 21.6513 16.3772 21.614C16.6759 21.5673 16.9605 21.4927 17.2312 21.39V19.458H15.2572V18.142H18.6452ZM20.6552 23V12.85H26.7312V14.264H22.1812V17.33H26.1572V18.758H22.1812V23H20.6552Z" fill="white"/>
</svg>
