<svg width="92" height="132" viewBox="0 0 92 132" fill="none" xmlns="http://www.w3.org/2000/svg">
<path d="M56.0803 26.554L56.6613 30.5949L60.7022 30.0139L60.1213 25.973L56.0803 26.554ZM89 51.1975L89.4403 51.4344C89.5576 51.2165 89.4978 50.9456 89.2996 50.7973L89 51.1975ZM91.1146 1.03489L87.0349 0.885368L86.8854 4.96511L90.9651 5.11463L91.1146 1.03489ZM1 84.7778L0.659633 84.4115C0.560973 84.5032 0.503474 84.6308 0.500152 84.7654C0.49683 84.9001 0.547967 85.0304 0.641985 85.1268L1 84.7778ZM46.0628 131L45.7048 131.349C45.8159 131.463 45.9747 131.517 46.1323 131.495C46.29 131.473 46.4277 131.377 46.5031 131.237L46.0628 131ZM89.2996 50.7973L58.6909 27.8837L58.0916 28.6842L88.7004 51.5978L89.2996 50.7973ZM88.6596 2.63374L0.659633 84.4115L1.34037 85.144L89.3404 3.36626L88.6596 2.63374ZM0.641985 85.1268L45.7048 131.349L46.4208 130.651L1.35802 84.4287L0.641985 85.1268ZM46.5031 131.237L89.4403 51.4344L88.5597 50.9606L45.6225 130.763L46.5031 131.237Z" fill="black"/>
</svg>
